# xmcd
#
# Track frame offsets:
#	150
#	13771
#	24786
#	36833
#	50191
#	63103
#	74393
#	87041
#	99923
#	111091
#	124661
#	139901
#	163373
#	177128
#	190003
#	197841
#	210951
#	220578
#	239198
#	250658
#	262403
#	274058
#	286661
#	299073
#	311753
#
# Disc length: 4332 seconds
#
# Revision: 2
# Processed by: cddbd v1.5.2PL0 Copyright (c) Steve Scherf et al.
# Submitted via: audiograbber 1.83.01
#
DISCID=7910ea19
DTITLE=Various Artist - Triomphes du Blues 2, Mississippi Blues
DYEAR=2001
DGENRE=Blues
TTITLE0=Robert Johnson - Sweet home Chicago - 1936
TTITLE1=Robert Johnson - Love in vain - 1937
TTITLE2=Robert Johnson - Crossroad - 1936
TTITLE3=Robert Johnson - I believe i'll dust my broom - 1936
TTITLE4=Robert Johnson - Ramblin' on my mind - 1936
TTITLE5=Robert Johnson - Walking blues - 1936
TTITLE6=Robert Johnson - Come on in my kitchen - 1936
TTITLE7=Robert Johnson - Kind hearted woman blues - 1936
TTITLE8=Robert Johnson - Stone in my pathway - 1937
TTITLE9=Robert Johnson - Terraplane blues - 1936
TTITLE10=Son House - Shetland Pony blues - 1941
TTITLE11=Son House - Delta blues - 1941
TTITLE12=Son House - Special rider blues - 1942
TTITLE13=Son House - Depot blues - 1942
TTITLE14=Son House - Am I right or wrong - 1942
TTITLE15=Son House - Walking blues - 1942
TTITLE16=Son House - Country farm blues - 1942
TTITLE17=Son House - The Pony blues - 1942
TTITLE18=Bukka White - Aberdeen Mississippi blues - 1940
TTITLE19=Bukka White - Parchman Farm - 1940
TTITLE20=Bukka White - Bukka Jitterburg swing - 1940
TTITLE21=Bukka White - High fever - 1940
TTITLE22=Bukka White - Fixin' to die - 1940
TTITLE23=Bukka White - Pine Bluff Arkansas - 1937
TTITLE24=Bukka White - Shake 'em on down - 1937
EXTD=
EXTT0=
EXTT1=
EXTT2=
EXTT3=
EXTT4=
EXTT5=
EXTT6=
EXTT7=
EXTT8=
EXTT9=
EXTT10=
EXTT11=
EXTT12=
EXTT13=
EXTT14=
EXTT15=
EXTT16=
EXTT17=
EXTT18=
EXTT19=
EXTT20=
EXTT21=
EXTT22=
EXTT23=
EXTT24=
PLAYORDER=
